<svg width="64" height="64" viewBox="0 0 64 64" fill="none" xmlns="http://www.w3.org/2000/svg">
<path d="M32 62C48.5685 62 62 48.5685 62 32C62 15.4315 48.5685 2 32 2C15.4315 2 2 15.4315 2 32C2 48.5685 15.4315 62 32 62Z" stroke="white" stroke-width="2" stroke-linecap="round" stroke-linejoin="round"/>
<path d="M32 22C41.1 22 48.3 26 53.3 26C52.049 21.3359 49.2713 17.2255 45.4103 14.3253C41.5494 11.425 36.8279 9.9022 32 9.99998C27.1721 9.9022 22.4506 11.425 18.5897 14.3253C14.7287 17.2255 11.951 21.3359 10.7 26C15.6 26 22.9 22 32 22ZM38 36C35.4 39.6 36.7 47.1 38.9 52.9C47.4 50 53.6 43.4 54 34C49.7 34 39.6 33.7 38 36ZM26 36C28.6 39.6 27.3 47.1 25.1 52.9C16.6 50 10.3 43.4 10 34C14.3 34 24.4 33.7 26 36Z" stroke="white" stroke-width="2" stroke-linecap="round" stroke-linejoin="round"/>
</svg>
