<svg width="64" height="64" viewBox="0 0 64 64" fill="none" xmlns="http://www.w3.org/2000/svg">
<path d="M32 62C48.5685 62 62 48.5685 62 32C62 15.4315 48.5685 2 32 2C15.4315 2 2 15.4315 2 32C2 48.5685 15.4315 62 32 62Z" stroke="white" stroke-width="2" stroke-miterlimit="10" stroke-linecap="round" stroke-linejoin="round"/>
<path d="M48 40.9C46.3473 43.6873 43.9915 45.9916 41.1684 47.5822C38.3453 49.1729 35.1539 49.9941 31.9136 49.9637C28.6734 49.9334 25.4979 49.0524 22.7051 47.4091C19.9123 45.7658 17.6001 43.4178 16 40.6M18 27.9C18 26.8392 18.4214 25.8217 19.1716 25.0716C19.9217 24.3215 20.9391 23.9 22 23.9C23.0609 23.9 24.0783 24.3215 24.8284 25.0716C25.5786 25.8217 26 26.8392 26 27.9M38 27.9C38 26.8392 38.4214 25.8217 39.1716 25.0716C39.9217 24.3215 40.9391 23.9 42 23.9C43.0609 23.9 44.0783 24.3215 44.8284 25.0716C45.5786 25.8217 46 26.8392 46 27.9" stroke="white" stroke-width="2" stroke-miterlimit="10" stroke-linecap="round" stroke-linejoin="round"/>
</svg>
