<svg width="64" height="64" viewBox="0 0 64 64" fill="none" xmlns="http://www.w3.org/2000/svg">
<path d="M12 39V26L19.9 38H20V25M34 26H26V38H34M32 32H26M38 25L41.4 38H41.8L45.4 28H46.5L49.8 38H50.4L54 25" stroke="white" stroke-width="2" stroke-miterlimit="10" stroke-linejoin="round"/>
<path d="M32 4.5L38 2L42.5 6.6H49L51.5 12.5L57.4 15V21.5L62 26L59.5 32L62 38L57.4 42.5V49L51.5 51.5L49 57.4H42.5L38 62L32 59.5L26 62L21.5 57.4H15L12.5 51.5L6.6 49V42.5L2 38L4.5 32L2 26L6.6 21.5V15L12.5 12.5L15 6.6H21.5L26 2L32 4.5Z" stroke="white" stroke-width="2" stroke-miterlimit="10" stroke-linejoin="round"/>
</svg>
