<svg width="48" height="48" viewBox="0 0 48 48" fill="none" xmlns="http://www.w3.org/2000/svg">
<g clip-path="url(#clip0_27_143)">
<path d="M6.16248 40.4903H41.2394M42.0703 20.9288L38.2564 40.5113M40.5759 20.1075L33.8718 26.9888L23.641 14.9888L13.4102 26.9888L6.70763 20.109M9.02563 40.491L5.22636 20.9903" stroke="white" stroke-width="2" stroke-miterlimit="10" stroke-linecap="round" stroke-linejoin="round"/>
<path d="M23.641 14.988C25.659 14.988 27.2949 13.3091 27.2949 11.238C27.2949 9.16697 25.659 7.48804 23.641 7.48804C21.6231 7.48804 19.9872 9.16697 19.9872 11.238C19.9872 13.3091 21.6231 14.988 23.641 14.988Z" stroke="white" stroke-width="2" stroke-miterlimit="10" stroke-linecap="round" stroke-linejoin="round"/>
<path d="M4.64102 20.9873C6.25539 20.9873 7.5641 19.6442 7.5641 17.9873C7.5641 16.3305 6.25539 14.9873 4.64102 14.9873C3.02665 14.9873 1.71794 16.3305 1.71794 17.9873C1.71794 19.6442 3.02665 20.9873 4.64102 20.9873Z" stroke="white" stroke-width="2" stroke-miterlimit="10" stroke-linecap="round" stroke-linejoin="round"/>
<path d="M42.641 20.9873C44.2554 20.9873 45.5641 19.6442 45.5641 17.9873C45.5641 16.3305 44.2554 14.9873 42.641 14.9873C41.0266 14.9873 39.7179 16.3305 39.7179 17.9873C39.7179 19.6442 41.0266 20.9873 42.641 20.9873Z" stroke="white" stroke-width="2" stroke-miterlimit="10" stroke-linecap="round" stroke-linejoin="round"/>
</g>
<defs>
<clipPath id="clip0_27_143">
<rect width="46.7692" height="48" fill="white" transform="translate(0.256409)"/>
</clipPath>
</defs>
</svg>
